<svg version="1.0" xmlns="http://www.w3.org/2000/svg" width="826.667" height="550.667" viewBox="0 0 620 413"><path d="M292.5 30.7c-1.8 10.9-3.2 13.4-7 11.9-1.4-.5-1.6-1.4-1-5.4.3-2.6.9-5.7 1.2-7 .4-1.6.1-2.2-1-2.2-1.5 0-1.9 1-3.1 9.9-.7 4.6 1 7.1 4.8 7.1 5.4 0 7.1-2.6 9.1-14.3.5-2.9.3-3.7-.9-3.7-1 0-1.7 1.4-2.1 3.7zM320.1 35.5c-1.1 4.6-2.1 8.7-2.1 9 0 .9 7.1.5 9.1-.5 1.8-1 4.9-5.9 4.9-7.9 0-2.2-3.6-3-6.4-1.6-2.5 1.3-2.7 1.3-2.2-.3 1.7-5.8 1.8-7.2.3-7.2-1 0-2.1 2.6-3.6 8.5zm7.4 4.9c-1.1 1.6-2.6 2.6-4.1 2.6-3.2 0-3-1.3.7-4.5 3.9-3.2 5.9-2 3.4 1.9zM298.1 36c-1.5 6.7-1.4 8 .4 8 .9 0 1.5-.9 1.5-2.3.1-2.4 3.2-6.7 4.8-6.7.7 0 .7 1.1.1 3.2-1.3 4.5-1.1 5.8.6 5.8.8 0 1.5-.8 1.5-1.9 0-1.9 3.6-7.1 5-7.1.4 0 .4 1.7-.1 3.7-1.1 5-1.1 5.3.5 5.3 1.3 0 3.9-9.7 2.9-11.2-.6-1.2-4.1-1-4.8.3-.5.7-1.3.5-2.4-.5-1.5-1.4-2-1.4-3.7-.1-2.3 1.7-3.5 1.9-3.1.4.1-.6-.3-1.3-1-1.6-.7-.2-1.5 1.6-2.2 4.7zM263.7 38c-4.5 3.6-4.8 12-.4 12 3.4 0 6.4-2.6 7.7-6.5 2.1-6.5-2-9.6-7.3-5.5zm5.1 3.2c.4 2.9-2.9 7.5-4.6 6.4-1.8-1.1-1.4-5.7.5-7.8 2.1-2.4 3.7-1.8 4.1 1.4zM335.9 37c-2.2 1.3-4.3 6.5-3.5 8.6.5 1.2 1.4 1.5 3.5 1.1 2.1-.5 3.1-.2 3.5 1 .9 2.2 2 .8 4-5.1 1.3-3.9 1.3-5.1.4-5.8-1.7-1-5.9-1-7.9.2zm6.1 1.7c0 .4-1 1.7-2.2 3-3.7 4-6.8 2.2-3.1-1.9 1.5-1.7 5.3-2.5 5.3-1.1zM255.1 41.6c-1.6 2.1-2.1 2.3-2.1 1 0-1-.6-1.6-1.2-1.4-.8.3-1.4 2.9-1.6 7.2-.2 5.2 0 6.7 1 6.4.7-.3 1.6-2.4 1.9-4.8.4-3 1.4-5 3.2-6.6 2.7-2.3 3.5-4.4 1.8-4.4-.5 0-1.9 1.2-3 2.6zM347.6 44c-2.1 5.9-1.2 8.5 1.5 4.1 1.9-3.2 5.9-6 5.9-4.1 0 .6-.6 2.6-1.4 4.5-1.3 3.1-1.2 4.5.5 4.5 1 0 3.9-7.6 3.9-10.1 0-1.8-.5-2.1-3-1.7-2 .3-3 0-3-.9 0-3.2-2.8-.9-4.4 3.7zM240.7 45c-.9 1.6-1.1 3-.5 3.2.5.2 1.2 2.3 1.5 4.6.7 5 1.5 5.7 4.5 4.1l2.2-1.2-2.2-.8c-2.8-1.1-3.1-7.5-.4-9.5 1.6-1.3 1.6-1.3 0-1.4-1 0-1.8-.5-1.8-1 0-2-1.9-.9-3.3 2zM372.1 43.8c-.8 1.5-2 2-4.7 1.9-2.8-.1-4.2.5-6 2.7-2.8 3.2-3 4.9-.8 6.7 1.2 1 2 1 3.5.1 2.5-1.6 2.8-1.5 2.2.8-1.1 4.2 1.7 1.7 5.1-4.6 2-3.6 3.8-7 3.9-7.6.4-2-2.2-1.9-3.2 0zm-3.4 4.7c.6 1.8-2.3 4.4-4.9 4.5-2.4 0-2.3-.9.4-3.7 2.5-2.7 3.6-2.9 4.5-.8zM378.6 47.9c-.3.5 0 1.1.8 1.4 1.5.6 2.6-.1 2.6-1.5 0-1.1-2.7-1-3.4.1zM233.2 50.2c-.7.7-1.2 1.8-1.2 2.6 0 1.2-.3 1.2-1.5.2-2.4-2-2.8-.7-1.8 6.2.8 6.1 2.8 8.1 2.8 2.8 0-3.7 1.5-9 2.6-9 .5 0 .9 2 .9 4.5 0 4.3 1.1 5.8 2.5 3.4.4-.6.4-3.5 0-6.5-.6-5.4-1.9-6.6-4.3-4.2zM374.5 55.5c-2.4 4.1-2.7 7.3-.5 6 1.4-.8 5.8-9.3 5.2-9.9-1.2-1.2-2.1-.4-4.7 3.9zM383.3 55.7c-1.7.6-1.6 1.8.3 5.9 2.1 4.3 1.1 5.4-2 2.5-1.4-1.3-2.6-1.8-3-1.3-.7 1.2 4 5.2 6.1 5.2 2.1 0 2.7-2.7 1.3-6.1-1.6-3.7-.7-4.8 2-2.4 1.8 1.6 2 1.6 2 .2 0-1.8-4.8-4.7-6.7-4zM219.1 59.6c-4 5.1-2 14 2.6 11.6 2.5-1.4 5.9-5.2 4.6-5.2-.6 0-1.6.7-2.3 1.5-1.2 1.5-4 2.1-4 .9 0-.3.9-1.9 2-3.4 4.3-6 1.6-11.1-2.9-5.4zm2.9 1.8c0 .7-.7 1.9-1.5 2.6-1.6 1.3-2 .3-.9-2.4.8-2 2.4-2.1 2.4-.2zM208.6 61.1c-3.7 2.9-5.6 7.1-5.6 12.4 0 8.3 5.3 10.5 10.6 4.3 3.2-3.9 2.2-5-1.4-1.5-3.3 3.2-4.8 3.4-6.2.8-2.6-4.9.1-13.6 4.5-14.7 1.4-.3 2.5-1.2 2.5-2 0-2-1.3-1.7-4.4.7zM392.8 59.7c-1 .3-1.5 1-1.1 1.9.3.8-.2 2.5-1.1 3.9-2 3.1-2 5.9-.1 7.5 1.8 1.5 3.4.5 1.7-1.2s1.7-7.1 4.1-6.4c1.3.3 1.7 0 1.3-1.1-.3-.8-.6-2.1-.6-2.8 0-1.5-1.8-2.3-4.2-1.8zM399.5 70.2c-2.6 1.5-3.5 2.8-3.5 5.6 0 1.7.7 2.4 2.9 2.8 1.9.4 2.8 1.1 2.5 1.9-.3.7-.1 1.6.4 1.9.9.5 7.2-6.5 7.2-8.1 0-.8-6.1-5.3-7.1-5.3-.2 0-1.3.6-2.4 1.2zm6 3.8c0 1.5-4.1 3-6.2 2.2-.9-.3-1-.9-.2-2.4 1.2-2.3 6.4-2.2 6.4.2zM295.5 70.6c-31.6 4.8-53.1 14.4-76 33.9l-7.7 6.5-4.7-2.4c-2.5-1.4-5.5-2.7-6.6-3-1.1-.3-4.5-2.2-7.5-4.1-3-1.9-6.7-3.5-8.2-3.5-1.5 0-3.9-.5-5.3-1.2-1.4-.6-2.8-.8-3.2-.4-.9.8 2.1 6.1 5.7 10.1 1.5 1.6 4.6 5.9 7 9.5 2.3 3.6 5.4 7.7 6.7 9.2l2.5 2.6-4 5.9c-10.6 15.6-18.1 35.5-21.3 56.4-1.5 10.3-.6 39.1 1.6 48.9 5.1 22.5 15.1 43 29.7 60.8l6.1 7.4-9.9 9.2c-10.1 9.5-10.9 11.2-6.4 13.6 1.8 1 3.1 0 11.9-8.5l9.8-9.5 2.9 2.6c42.2 37.3 101.7 45.9 152.9 22 14.4-6.7 24.8-13.9 36.7-25.3 3.2-3 6.2-5.3 6.7-5.1 1.5.5 11 9.8 12.7 12.3 3 4.7 4.4 3.2 3.7-4-.3-3.8-.2-6.5.4-6.5.5 0 3.4 2.1 6.4 4.8 9.1 7.9 8.7 7.7 10.9 5.7 1.1-1 2-2.4 2-3.1 0-1.4-9.5-9.7-12.2-10.7-2.1-.7-2.4-3.2-.6-4.3.7-.5 3.9-.7 7-.6 6.7.3 7.9-1.6 2.8-4.3-1.7-.9-5.4-3.4-8.3-5.5-2.9-2.2-5.7-4-6.4-4-2.6 0-2.2-2.4 1.6-9.3 24.8-45.2 22.4-99.6-6.5-144.4-3-4.6-5.4-8.9-5.4-9.5 0-.7 1-2.3 2.2-3.7 2.1-2.3 2-2.3-.8.2l-3.1 2.8-5.2-5.7c-2.8-3.2-5-6.3-4.8-6.8.2-.6 5.3-4.5 11.4-8.6 6.1-4.1 11.9-8.1 13-8.8 6.1-4.2-9.9 4.7-17.7 9.8-6 4-9.8 5.9-10.6 5.4-.6-.5-4.2-3.5-8-6.7C383.9 87.5 363 77.6 341 72.9c-9.2-2-37.9-3.4-45.5-2.3zM325.1 86c9.4 1.2 21.6 4.1 29.9 7.1 13 4.7 30 14.9 39.8 23.8 6.2 5.7 5.9 8-2.8 16.6-3.8 3.8-6.7 7.1-6.5 7.3.2.3 3.4-2.3 7.1-5.7 6.3-5.8 8.4-7.1 8.4-5.3 0 .4-3.3 4-7.3 8l-7.4 7.3-1.9-2.8c-2.2-3.3-2.4-5.3-.7-7.3.7-.9 1-2.6.6-3.8-.6-2.3-1.8-2.9-2.8-1.2-.3.5-1.1 1-1.7 1-.7 0-.7-.4 0-1.3 3-3.7 2.4-5.5-3.2-9.6-5-3.7-5.7-4-8.5-3-2.4.8-3.1 1.7-3.1 3.7 0 1.4-.5 4-1.2 5.8-1 2.8-.8 3.5 1.3 6.5 1.7 2.4 2.4 4.8 2.4 8 0 2.6.6 5.8 1.4 7.2.7 1.4 1.1 3.2.8 4-.3.8-3.7 4-7.6 7.1-3.9 3.1-7.1 6.1-7.1 6.5 0 .5 1.1 1.6 2.5 2.5 1.4.9 2.5 2 2.5 2.5 0 1.4-4.1 0-4.7-1.5-.8-2.2-3.2-1.6-4.5 1.1-1.5 3.3-2.1 3.2-4.1-.8-2.6-5.1-10.4-19.3-16.4-29.7-3-5.2-6.1-10.8-6.9-12.5-1.3-2.7-7.2-13.3-10-17.9-.6-1-1.6-1.6-2.2-1.2-1 .6-5.1 7.5-9 15.1-1.7 3.3-18.8 34.1-20.3 36.5-.5.8-2.2 4.1-3.9 7.2-1.7 3.2-3.5 5.8-4 5.8s-4.2-2.9-8.2-6.4c-5.8-5.1-7.5-6.1-8.1-5-1.4 2.5-.1 4.1 7.2 8.9 3.9 2.6 7.3 5 7.5 5.4.3.4-1.7 4.5-4.5 9.2-2.7 4.6-6.2 10.9-7.6 13.9-1.5 3-3 5.7-3.3 6-.3.3-3.9 6.5-7.8 13.7-13.8 25.3-13 24.2-19.7 28.7-3 2-5.7 3.6-5.9 3.6-1.7 0 .5-5 3.9-8.9 8.8-9.9 13.2-16.6 14.5-22 .7-3 2.3-8.1 3.6-11.3 2.4-6.2 2-6.9-3-4.3-2.9 1.6-5.6 2-5.6.9 0-.4 1.9-3 4.3-5.8 4.6-5.5 7.7-11.2 7.7-14.3-.1-1.5-.3-1.3-1.5.7-.8 1.4-1.4 2-1.5 1.5 0-1.8-4.1-3.8-5.3-2.6-.6.6-3 1.1-5.3 1.1-3.9 0-4.3-.2-4.9-3-.7-3.1-1.9-3.9-2.9-1.8-.3.7-.3.2 0-1.2.8-3.2 7.5-12 14.3-18.7 4.1-4.1 5.7-5.1 6.7-4.2 1.7 1.4 3.9.2 2.5-1.5-1.1-1.2 4.7-6.7 10-9.3 1.6-.8 3.6-2.9 4.4-4.6.7-1.8 2.3-4.7 3.5-6.5 1.9-2.7 1.9-3.2.6-3.2-.9 0-1.6.7-1.6 1.5s-1.3 2.7-3 4.2c-1.6 1.4-3 3.3-3 4.1 0 1.2-.3 1.2-1.5.2-.9-.7-1.9-1-2.2-.6-.4.4-.1 1.1.7 1.6.8.5 1.1 1.2.7 1.7-.4.4-1.7.2-2.7-.5-3-1.8-3.8-1.5-3.2 1.4.4 2.3.2 2.5-1.7 1.9-1.1-.3-2.1-.2-2.1.3s-.9 1.2-2 1.5c-1.3.3-1.8 1-1.4 2.1.4 1.1.1 1.6-1.1 1.6-.9 0-1.4-.4-1.1-.9.3-.5-.3-1.1-1.5-1.4-2-.5-2-.7-.4-3.7.9-1.8 5-7.9 9.1-13.7 4.1-5.7 7.4-10.6 7.4-10.9 0-2-18.6 22.1-22.1 28.6-2.3 4.3-4.4 7-5.4 7-.4 0-.2-.7.5-1.5 1.4-1.6.6-3.5-1.6-3.5-.8 0-1.4-.4-1.4-1 0-.5-.7-.7-1.5-.4-1 .4-1.6-.3-2-2.3-1.1-4.7-1.3-4.9-1.4-1.3-.1 2 .3 4 .8 4.5.5.6 1.1 3.9 1.3 7.4.4 6.2-.6 12.2-3.1 18.9-1.3 3.1-1.5 3.2-5 2.5-2-.5-5.5-.7-7.8-.7-3.4.1-4-.1-3.5-1.5s.4-1.4-1.1-.2c-1 .8-1.5 1.6-1.2 1.9.3.3-.1 1.5-.8 2.6-2.4 3.9-4.8 11.5-4.9 15.5 0 3.4.9 5.2 5.7 11.6 3.1 4.2 5.4 7.9 5 8.3-.4.4-2.9-1.7-5.5-4.6-2.7-2.8-5.2-5.2-5.5-5.2-.4 0-.6 3-.3 6.7.3 6.5.6 7.2 7.2 16.8 6.4 9.3 10.6 17.9 9.3 19.2-.3.2-2.6-1.6-5.2-4.1-2.5-2.5-4.9-4.6-5.4-4.6s-1.1-.9-1.4-2c-.3-1.1-.9-2-1.4-2-1.3 0-.2 9.2 1.3 11.5.8 1.1 1.4 2.8 1.4 3.7 0 1 .4 2.6.9 3.6.5.9 1.4 2.9 2.1 4.3.6 1.4 3.6 4.4 6.6 6.8l5.4 4.2-2.5 4.3c-3.5 6-3.3 6.6 2.3 6.6h4.8l1.8 5.7c.9 3.2 2 6.4 2.3 7 .6 1.7-2.5 2.9-3.9 1.5-.8-.8-.7-1.6.3-2.9 1.3-1.7 1.3-1.7-.4-.3-1.7 1.3-2.3 1-6.3-3.5-9.5-10.9-18.7-26.9-23.7-41.5-4.7-13.8-6.2-23.2-6.2-40 0-16.6 1.3-25.1 6.1-39.6 4.8-14.9 17.2-36.6 21.5-37.7 2.6-.7 6 .5 7.8 2.7.7.9 1.8 1.6 2.3 1.6.6 0 1.9 1.1 3 2.5 2.2 2.9 4.4 3.5 3 .8-.6-.9-3.6-4.3-6.8-7.5l-5.8-5.8 5.4-5.6c25.1-25.5 65.7-39.8 101.1-35.4zm79 41.3c1.2 2.2 1.2 2.2-1 .3-1.1-1.1-2.1-2.3-2.1-2.8 0-1.4 1.9.1 3.1 2.5zm4.5 4.5c.5.4 3.1 3.6 5.6 7.2 13.2 18.8 21.8 45 21.8 66.4 0 7.1-.2 7.8-1.3 5.7-.6-1.3-2.4-3.3-3.9-4.4-3.7-2.8-5.6-2-21.3 8.8-5.4 3.8-10.4 4.6-12.5 2-.7-.8-3-1.8-5.2-2.1-2.1-.4-4.1-1.1-4.4-1.5-1.2-2-3.4-.8-3.4 1.8 0 7.6 2.9 12.1 10.3 16.2 3.3 1.8 4.3 2 9 1 5.3-1.1 13-4.9 14.4-7.2 1.2-1.9 9.5-7.7 11-7.7 2.1 0 1.5 5.8-.9 10.2-1.6 2.8-3.7 4.6-7.3 6.3-2.7 1.3-6.9 4-9.3 6l-4.2 3.7 2.9 3.1c2.3 2.2 3.4 2.7 4.3 1.9.7-.5 4-1.9 7.2-3.1 3.3-1.1 6.8-3 7.8-4.1 1-1.1 2.3-2 2.8-2 1.4 0-3.7 15.9-7.1 22.2-.8 1.5-1.3 1.7-2.5.7-.7-.6-2.5-.9-3.8-.7-4.3.9-8-3.9-7-9.1.6-2.8.4-3.1-1.9-3.1-1.3 0-3-.7-3.7-1.5-3.1-3.7-3.9 1.2-1.5 9.1 2.2 7.3 3 8.2 5.3 6.1 2.5-2.2 3.7-.9 1.5 1.6-1.7 1.8-1.7 2 .5 3.8 1.6 1.3 3.2 1.6 5.3 1.2 3.7-.7 3.8.8.3 5.4l-2.5 3.3-5-2.6c-2.7-1.5-4.9-3.1-4.9-3.6s-1.1-2.4-2.4-4.1c-1.3-1.8-3.9-6-5.8-9.4-3.2-5.9-11.6-21-25.3-45.3-3.5-6.3-6.5-11.8-6.5-12.3 0-.4 1.1-.7 2.4-.7 1.4 0 3.3-.8 4.2-1.8 1.7-1.6 1.8-1.6 1.1 0-.5 1.4-.1 1.8 1.9 1.8 4.5 0 10-3.8 15.8-10.9l5.8-7.1-4.1-4.6c-2.3-2.6-4.1-5.1-4.1-5.5 0-1.8 2.7.4 5.5 4.6 1.7 2.5 3.3 4.5 3.8 4.5.4 0 2.5-1.8 4.7-4 4-4 8-5.3 8-2.5 0 .7-.5 3.8-1.1 6.7-1.3 5.9-4.2 9.2-11.9 13.4-8 4.3-13.9 13.5-10 15.3l4.8 2.4c4 2 5.8 2.1 6.9.4 1-1.5 9.9-8.8 13.1-10.8 6.3-3.8 11.9-19.1 9.4-25.7-.6-1.5-1.3-3.9-1.6-5.4-.3-1.4-2.5-4.6-4.9-7.1-3.6-3.6-5.2-4.6-8.8-5-5.5-.6-11.7 2.1-15.4 6.6-3.4 4.1-10.5 15.5-10.5 16.7 0 .6-.5 1-1.1 1-.5 0-2.7 1.4-4.9 3.1-4.8 3.8-8 3.6-9.2-.6-.4-1.7-.4-4.2.2-5.8.5-1.5.7-3.4.4-4.2-.4-.8-.2-1.5.4-1.5.5 0 2.6-1.5 4.5-3.3 13.1-12 13.5-12.5 14.6-17.6.9-4.4 2.1-6 10.3-14 8.9-8.7 11-10 13.4-8.3zm-94.3 8.4c.9 1.8 3.4 6.4 5.6 10.3 2.2 3.8 4.9 8.8 6 11 1.2 2.2 2.5 4.7 3 5.5 3.8 5.9 9.9 17.5 9.6 18.1-.3.4.2.9 1 1.3 2.6.9 1.7 3-3.5 8.1-2.7 2.7-4.7 5.1-4.5 5.4.3.3 2.8-1.7 5.5-4.4s5.1-4.7 5.3-4.4c1.4 2 7.5 12.8 8 14.2.6 1.6-.3 1.7-12.6 1.5l-13.2-.3-.2-15.2c-.1-8.4-.4-15.7-.8-16.3-.4-.6-5.1-1-11.6-1H301v9.9c0 5.5-.4 10.2-.9 10.5-.4.3-3.9-2.3-7.6-5.8l-6.8-6.4 4.6-7.9c2.6-4.4 4.7-8.3 4.7-8.7 0-.3 1.1-2.3 2.4-4.4 1.3-2 4.9-8.3 8-14 3.2-5.6 6.1-10.2 6.5-10.2.4 0 1.5 1.5 2.4 3.2zm57.7 1.4c0 .8-.5 1.2-1 .9-.6-.4-.8-1.1-.5-1.6.9-1.4 1.5-1.1 1.5.7zm-131.3 11.6c-.3.8-.6.5-.6-.6-.1-1.1.2-1.7.5-1.3.3.3.4 1.2.1 1.9zm.3 4c0 1.3-2.3.5-2.8-1-.2-.7.2-1 1.2-.6.9.3 1.6 1.1 1.6 1.6zm129.8 1c1.9 1.9 1.4 3-.8 1.8-1.1-.6-2-1.5-2-2 0-1.4 1.4-1.2 2.8.2zM387 188c.5 1 1 2.2 1 2.6 0 1-4-2.8-5.2-4.9-.8-1.6-.7-1.7 1.1-.8 1.1.7 2.5 2 3.1 3.1zm-94.1 4.9c7.6 6 8.1 6.6 8.1 10.2v3.9h-29l3.6-6.3c1.9-3.4 4.5-8.1 5.7-10.5 1.1-2.3 2.4-4.1 2.8-4 .4.2 4.4 3.2 8.8 6.7zm69.1-4c0 1.1-2.6 2.2-3.4 1.4-1.2-1.2-.5-2.3 1.4-2.3 1.1 0 2 .4 2 .9zm53.1 4.6c1.7.6 2.7 2.5 1.4 2.5-1.9 0-5.5-3.6-5.4-5.4 0-2.1 0-2.1 1.1.1.6 1.3 1.9 2.5 2.9 2.8zm10.9 17.1c0 .8-.4 1.2-1 .9-.5-.3-1-1.3-1-2.1s.5-1.2 1-.9c.6.3 1 1.3 1 2.1zm-157.2 20.6c.4.4 7.8.8 16.5.9l15.7.1v27l-3-.4c-3.3-.5-3.6 0-1.7 2.6.7 1 1.1 3.1.9 4.7l-.4 2.9-28.4-.1H240l.1-2.2c0-2.6 1.2-5 14.3-28.4 5.5-9.8 10.7-19.2 11.5-20.8 1.6-3 1.6-2.9 1.9 5 .2 4.4.6 8.3 1 8.7zM361 224c1.7 3 4.6 8.2 6.5 11.5 1.9 3.3 4.4 8 5.6 10.5 1.1 2.5 2.6 5.2 3.4 6 .7.8 1.6 2.6 2 3.9l.7 2.4-2.4-1.9c-1.4-1-6.9-5.5-12.4-9.9-5.4-4.4-11.9-9.5-14.4-11.3l-4.5-3.2H356v-8.3c0-9 .1-9 5 .3zm54.5-7c.3.5.1 1-.4 1-.6 0-1.1-.5-1.1-1 0-.6.2-1 .4-1 .3 0 .8.4 1.1 1zm18.5 1c0 .5-.5 1-1.1 1-.5 0-.7-.5-.4-1 .3-.6.8-1 1.1-1 .2 0 .4.4.4 1zm-84.9 20.2c8.5 7.3 18.8 15.5 27.4 22 3.3 2.5 6.9 5.5 7.9 6.7l2 2.2-37.2-.1c-22.4-.1-37.2-.5-37.2-1.1 0-.5 2.9-.9 6.5-.9h6.5l-.7-17.5-.6-17.5h18l7.4 6.2zm77.9-3.6c0 .8-.4 1.2-1 .9-.5-.3-1-1-1-1.6 0-.5.5-.9 1-.9.6 0 1 .7 1 1.6zm-11 6.4c0 .5-.2 1-.4 1-.3 0-.8-.5-1.1-1-.3-.6-.1-1 .4-1 .6 0 1.1.4 1.1 1zm-188 15.9c0 1.2-2 2.5-2.7 1.8-.7-.7.6-2.7 1.8-2.7.5 0 .9.4.9.9zm8.9 31.8c-3.3 3.1-5.3 4.3-6 3.6-.6-.6-.3-1.8 1.1-3.5 1.1-1.5 2-3.1 2-3.7 0-.6 1.8-1.1 4-1.1h3.9l-5 4.7zm51.9-3.5c.9.9 1.2.9 1.2 0 0-.7.5-1.2 1-1.2.6 0 1 2.6 1 5.9 0 4.2.5 6.2 1.7 7.2 1.5 1.3 1.5 1.2.2-.9-1.3-2-1.2-2.4 1.5-4.7l2.9-2.5-2.7-.9c-1.6-.7-2.4-1.6-2-2.5.4-1.1 2.1-1.4 6.5-1.3 4.5.2 5.6.5 4.4 1.2-3.8 2.3-4.4 3-3.7 4.3.7.9 1.8.9 5.3-.3 3-1 5.3-1.3 6.8-.7 2.9 1 10.2-.7 12.9-3.1 2.1-1.9 5.2-2.3 5.2-.6 0 .7 1.1.8 3 .4 1.7-.4 3-.4 3-.1 0 1.4-6.5 4.7-11.1 5.6-5.3 1-9 3-5.6 3 2.4 0 2.2.5-2.3 5.1-3.7 3.8-5.3 7.9-3.1 7.9 1.2 0 8.1-9.4 8.1-11.1.1-1 .5-.9 1.4.4 1.2 1.6 1.4 1.5 1.9-1.1.4-1.7 1.2-2.9 2.2-2.9 1.3 0 1.6.9 1.4 4.3-.2 3.1.2 4.9 1.5 6.3 1.5 1.7 1.8 3.1 1.3 7.1-.8 6.5.5 7.1 6.5 3.1 7.2-4.8 12.4-12.7 13.4-20.2l.6-4-3.9 1.9c-3.7 1.8-9.8 2-11.6.3-.4-.4-.4-2.2-.1-3.9l.7-3.2 27.6.1 27.6.1 4.8 5.3 4.7 5.2-2.3 2.4c-16.5 17.2-45 32.6-61.5 33.4-4.8.2-5.2.1-4.6-1.7.5-1.7.3-1.9-1.6-1.3-1.9.6-2.1.4-1.5-1.5.6-1.9.4-2.1-1.6-1.5-2.1.7-2.2.6-1.1-.8.8-.9.9-1.8.3-2.1-.5-.4-1.2-.2-1.6.4-.3.5-1.1 1-1.7 1-.6 0-.6-.6.2-1.5 1.8-2.1.3-3.2-2.2-1.6-1.4.9-1.8.9-1.3 0 .5-.7.3-1-.6-.7-.8.3-1.4 1.5-1.4 2.9 0 1.3-.4 2.7-1 3.1-.5.4-.6 1-.2 1.4.4.4 1.5-.2 2.3-1.5 1.2-1.7 1.9-2 2.8-1.1.8.9.5 1.6-1.1 3l-2.2 1.8 2 1.8c1.6 1.5 2.2 1.6 2.8.5.5-.8 1.4-1 2.1-.6.9.6 1.1.4.5-.6-.6-1.1-.5-1.2.6-.2 1 1 1 1.6.1 2.5-1.9 1.9-32.4 1.8-33-.1-.3-1 .2-1.1 1.8-.6 1.9.6 2.2.4 1.7-.9-.4-.9-.3-1.5.1-1.5 1.9.3 2.3-.3 1.1-1.7-1.1-1.3-1-1.5.6-1.2 1 .1 2-.3 2.2-1 .3-.6 0-1.2-.6-1.2s-.8-.6-.5-1.3c.3-1-.5-1.4-3-1.4-3.5 0-3.5.1-1.5 1.8 1.3 1.1 1.6 2 .9 2.4-.6.4-1.9.1-2.8-.7-1.5-1.3-2-1.1-4.1.9-2.3 2.2-2.3 2.3-.4 2.3 2.3 0 3.5.9 2.7 2.1-.3.5-1.4.4-2.5-.1-2.1-1.2-2.6-.1-.7 1.8 1 1 .5 1.1-2.2.6-13.9-2.7-32-9.7-42.7-16.6-6.3-4.1-7.4-5.3-10.2-11.2-1.7-3.6-3.1-7.2-3.1-7.8 0-.7 2.6-3.8 5.7-7l5.7-5.8H266c15.5 0 21.9.3 22.8 1.2zm33.2-.2c0 1.5-2.7 2.3-4.7 1.5-1.6-.7-1.5-.9.7-1.5 3.6-1.1 4-1.1 4 0zm-91.5 17c.9 1.6 1.2 3 .7 3-1.5 0-4.4-3.8-3.7-4.9.9-1.6 1.3-1.4 3 1.9zm-17.5 7.8c0 .7-2.2 2.6-8.4 7.1-1.7 1.3-1.8 1.3-1.1 0 3-4.9 9.5-9.8 9.5-7.1zm83.5 17.2c.3.5.2 1-.4 1-.5 0-1.3-.5-1.6-1-.3-.6-.2-1 .4-1 .5 0 1.3.4 1.6 1zm29.7 1.5c0 .5-.5 1.1-1.1 1.3-.6.2-1.1-.4-1.1-1.3s.5-1.5 1.1-1.3c.6.2 1.1.8 1.1 1.3z"/><path d="M272.7 96.3c-.7.5.6.5 3 .2 3.6-.6 4.4-.3 5.5 1.4.7 1.2 1.6 2.1 2.1 2.1.4 0 0-1.1-1-2.5-1.4-1.8-2.6-2.4-5.1-2.3-1.8.1-3.8.6-4.5 1.1zM267 98c-1.3.8-1.2 1 .3 1 .9 0 1.7-.5 1.7-1 0-1.2-.1-1.2-2 0zM282.2 104.6c-.7.8-1.2 2-.9 2.7.2.7-.7 2.2-2 3.4-1.2 1.2-2.3 3.1-2.3 4.3 0 1.1-.6 2.3-1.4 2.6-.8.3-1.2 1.2-.9 2 .6 1.7 7.7-9.4 8.8-13.9.8-3.1.6-3.3-1.3-1.1zM269 129.6c0 .8.5 1.2 1 .9.6-.3 1-1 1-1.6 0-.5-.4-.9-1-.9-.5 0-1 .7-1 1.6zM197.8 228.6c-1.1 1.1.1 2.7 6.9 9.9 5.8 6.2 6.4 6.5 4.4 3-2.8-4.9-10.5-13.8-11.3-12.9zM284.4 243.8c-6.1 5.9-11.7 11.6-12.5 12.7-1.3 1.8-1.2 1.8 1.6-.2 1.7-1.2 3.9-3.2 5.1-4.5 1.1-1.2 4.7-4.8 8-7.9 7.9-7.5 10.9-10.9 9.8-10.9-.5 0-5.9 4.9-12 10.8zM279.5 241.2l-4 4.3 4.3-4c3.9-3.6 4.7-4.5 3.9-4.5-.2 0-2.1 1.9-4.2 4.2zM270.9 249.7l-2.4 2.8 2.8-2.4c2.5-2.3 3.2-3.1 2.4-3.1-.2 0-1.4 1.2-2.8 2.7zM261 259.1c0 .5.5.7 1 .4.6-.3 1-.8 1-1.1 0-.2-.4-.4-1-.4-.5 0-1 .5-1 1.1zM258 261.5c-.7.9-.8 1.5-.2 1.5.5 0 1.2-.7 1.6-1.5.3-.8.4-1.5.2-1.5s-.9.7-1.6 1.5zM263.4 263.5c-1.5 1.4-2.4 2.8-2 3.2.4.4 2.1-.7 3.9-2.5 3.7-3.8 2.1-4.4-1.9-.7zM281 286.9c-1.1 2.1-12 5.4-14.5 4.5-1.4-.6-1.6-.3-1.1 1.2.3 1 .2 3.2-.2 4.9-1 3.6 1.7 9.7 5.2 12 3.1 2.1 12.5 5.5 15 5.5 1.7 0 1.8-.5 1.3-5-.4-2.9-.1-6.3.5-7.8 1.2-3.1 1.1-11.8-.2-14.2-1.4-2.6-4.8-3.2-6-1.1zM328.2 287c0 1.4.2 1.9.5 1.2.2-.6.2-1.8 0-2.5-.3-.6-.5-.1-.5 1.3zM259.2 292c0 1.4.2 1.9.5 1.2.2-.6.2-1.8 0-2.5-.3-.6-.5-.1-.5 1.3zM297 294.6c0 .9 4.6 6.4 10.2 12.3 5.6 5.8 10.5 11 10.9 11.5.4.4 1.8.1 3-.8 2.2-1.5 2.2-1.6.3-1.6-1.3 0-5.6-4-12.2-11.5-5.7-6.3-10.7-11.5-11.2-11.5-.6 0-1 .7-1 1.6zM260.5 296c.3.5.8 1 1.1 1 .2 0 .4-.5.4-1 0-.6-.5-1-1.1-1-.5 0-.7.4-.4 1zM303.3 307.6c2.3 2.8 2.1 3.6-.8 6.4-1.4 1.3-2.5 2.8-2.5 3.4 0 .6 1.3-.5 3-2.4 2-2.4 3.3-3.1 4-2.4.7.7.3 1.8-1.5 3.4-2.9 2.7-3.1 4.2-.9 6.1 1.4 1.1 1.5 1 1.2-.8-.1-1.1.6-3 1.6-4.2l2-2.2 3.8 3.8c2.1 2 3.8 3.4 3.8 3 0-.5-3.4-4.3-7.7-8.5-4.2-4.2-6.9-6.8-6-5.6zM441.5 88.6c-3.5 2.2-3.7 2.4-1.2 1.8l2.9-.7-1.8 3.4c-1 1.9-2.4 4.7-3.1 6.4l-1.2 3 1.7-2.4c3-4.2 8.2-14.1 7.4-14.1-.4 0-2.5 1.2-4.7 2.6zM222 343.3c-1.4 1.2-3.9 3.2-5.5 4.4-2.2 1.6-2.7 2.5-1.9 3.3.8.8 1.8.5 3.6-1 3.9-3 5-2.6 4.6 1.7-.4 4.5 1.9 5.8 2.8 1.6.4-2.2 1.5-3.3 4-4.2 4.3-1.5 4.3-3.6.2-6.1-4.1-2.5-4.7-2.5-7.8.3zm6.8.9c.7.7 1.2 1.5 1.2 1.9 0 1.2-3.2 2-5.2 1.3-1.9-.6-1.9-.7-.2-2.5 2-2.2 2.6-2.3 4.2-.7zM399.8 343.1c-2.3 1.7-2.8 2.8-2.8 6.3 0 6.8 4.6 9.1 7.4 3.8.8-1.5 1.5-2.1 1.6-1.5 0 1.5 3 1.8 3 .3 0-1.6-4.9-11-5.8-11-.4 0-1.9 1-3.4 2.1zm3.2 4.7c0 1.5-.5 3.4-1 4.2-.9 1.3-1.1 1.3-2 0-1.3-2-1.3-5.3.2-6.8 1.6-1.6 2.8-.5 2.8 2.6zM387.4 346.8c-1.6 1-2.8 5.2-1.5 5.2.6 0 1.8 1.8 2.7 3.9.8 2.2 2.1 4.1 2.7 4.4 1.8.7 5.9-1.1 5.2-2.2-.3-.6-1.2-.8-2-.4-1.1.3-2-.7-3.1-3.3-1.1-2.6-1.3-3.9-.5-4.2 1.6-.5 1.4-2.2-.3-2.2-.8 0-1.6-.4-1.8-1-.1-.5-.8-.6-1.4-.2zM231 354c-2.5 2.5-2.5 3.3-.2 5.2 1.7 1.6 8.2 3.4 8.2 2.4 0-.3-1.6-1.3-3.7-2.1-4.4-1.9-3.6-3 1.9-2.6 2.5.2 4.4-.2 4.9-1 2.4-3.9-7.5-5.5-11.1-1.9zm8.5-.1c.3.5.1 1.2-.5 1.6-1.4.9-5.2-.4-4.5-1.6.8-1.2 4.2-1.2 5 0zM249.5 352.9c-.6 1.1.9 2.3 1.9 1.4.9-.9.7-2.3-.3-2.3-.6 0-1.2.4-1.6.9zM379.4 353c-4.8 1.9-7.1 9.2-3.8 12.4 2 2.1 2.1 2.1 4.9-1 1.4-1.5 2.5-2.2 2.5-1.5 0 .6.7 1.1 1.5 1.1s1.5-.3 1.5-.7c0-1.5-3.4-11.3-3.9-11.2-.3 0-1.6.4-2.7.9zm1.6 4.1c0 2.5-1.7 5.9-3 5.9-1.4 0-1.2-5.4.2-6.8 1.8-1.8 2.8-1.5 2.8.9zM364.5 358.5c-.3 3-1 5.7-1.4 5.9-.4.3-1.7-1.5-2.9-3.9-2.1-4.3-4.4-5.7-5.7-3.5-.4.6-.3 4.4 0 8.5.6 5.7 1.1 7.5 2.2 7.5 1.3 0 1.5-1.1.9-6.3l-.6-6.2 2.5 4.7c3.3 6.3 5.1 6.2 6-.2.9-6.7 2.1-7.1 2.9-1 .5 3.4 1.1 5 2.1 5 1.9 0 1.9-.5-.1-9.1-1.2-5.4-2-6.9-3.4-6.9s-1.9 1.1-2.5 5.5zM244.1 359.9c-4.2 5.3-2.1 6.5 2.4 1.4 3.8-4.2 4.2-5.3 2.1-5.3-.8 0-2.8 1.8-4.5 3.9zM251.2 362.2c-2.9 3.7-3.1 4.3-1.5 4.7.9.2 1.9-.2 2.1-.8.5-1.4 6.2-4.5 6.9-3.7.3.3-.2 1.7-1.1 3-1.8 2.8-2.1 4.6-.6 4.6 1.2 0 6-7 6-8.9 0-1-.9-1.2-3.4-.8-2.8.4-3.4.3-2.9-.9 1.1-3-2.4-1.2-5.5 2.8zM311.4 364.5c-.4 1.8-1.3 2.5-2.9 2.5-2.7 0-7.5 5.2-7.5 8.1 0 2.7 2.6 3.4 5.5 1.5 2.2-1.4 2.5-1.5 2.5-.1 0 .8.6 1.5 1.3 1.5.9 0 1.9-2.9 2.8-8 1.3-6.5 1.3-8 .3-8-.8 0-1.6 1.1-2 2.5zM310 371c-.9 1.8-4 4-5.4 4-.3 0-.6-.5-.6-1.2 0-1.9 3.2-4.8 5.2-4.8 1.6 0 1.7.3.8 2zM266.1 365.4c-2.9 3-2.4 5.8 1.2 7 5.5 2 12-3.1 9.6-7.6-1.5-2.8-8-2.4-10.8.6zm7.9.1c1 1.3 1 1.9-.5 3.5-2.4 2.7-6.5 2.7-6.5.1 0-1.1 1-2.7 2.2-3.5 2.8-2 3.2-2 4.8-.1zM321.2 367c-2.6 1.1-5.8 7.1-4.9 9.4.8 2.1 3.6 2 5.9-.1 1.7-1.5 1.8-1.5 1.8 0 0 1 .6 1.7 1.4 1.7 1.2 0 2.6-5.8 2.6-10.6 0-1.6-3.3-1.7-6.8-.4zm3.8 2.3c0 1.6-3.7 5.7-5 5.7-1.5 0-1.2-2.3.6-4.8 1.7-2.4 4.4-3 4.4-.9z"/></svg>